# ProBuilder 4.4.0
# https://unity3d.com/unity/features/worldbuilding/probuilder
# 3/9/2021 10:17:44 PM

mtllib ./Room3_Hallway_primitives.mtl
o Room3_Hallway_primitives

g Room3_Hallway_primitives
v 0 0 0
v -1 0 0
v 0 1 0
v -1 1 0
v -1 0 -1.5
v -1 1 -1.5
v 0 0 -1.5
v 0 1 -1.5
v -3.814697E-06 6 40.50005
v 0 14 40.50005
v 1.907349E-06 14 50.50006
v 1.907349E-06 6 50.50006
v 3.999999 14 40.49995
v 4.000008 14 50.49995
v 3.999997 6 40.49994
v 3.999998 6 50.49995
v 0 11 29.49988
v 0 12 29.49988
v 13.5 12 29.49988
v 13.5 11 29.49988
v 0 12 0.000125885
v 13.5 12 0.000125885
v 0 11 0.000125885
v 13.5 11 0.000125885
v 3.999998 -4.768372E-07 29.50005
v 3.999998 1 29.50005
v 4.000003 7.000002 40.50006
v 4.000003 -4.768372E-07 40.50006
v 12 1 29.49994
v 12.00001 7.000002 40.49995
v 12 4.768372E-07 29.49994
v 12 -4.768372E-07 40.49995
v 4.577637E-05 6 58.5
v 4.577637E-05 7.000002 58.5
v 4.000045 7.000002 58.50004
v 4.000045 6 58.50004
v -4.959106E-05 7.000002 50.49997
v 3.999955 7.000002 50.50002
v -5.340576E-05 6 50.49997
v 3.999955 6 50.50003
v 12 6 49.50005
v 12 14 49.50005
v 12 14 58.50005
v 12 6 58.50005
v 13 14 49.49995
v 13.00001 14 58.49995
v 13 6 49.49995
v 13 6 58.49995
v 5.722046E-06 15 40.50006
v 7.629395E-06 15 58.50006
v 7.629395E-06 14 58.50006
v 12 15 40.49995
v 12.00001 15 58.49995
v 12 14 40.49995
v 12 14 58.49995
v -3.814697E-06 -4.768372E-07 29.50005
v 1.907349E-06 13 29.50005
v 1.907349E-06 13 40.50005
v 1.907349E-06 -4.768372E-07 40.50005
v 3.999998 13 29.49994
v 4.000007 13 40.49995
v 3.999996 0 29.49994
v 3.999996 0 40.49994
v 11.99994 6 58.49998
v 11.99994 15 58.49998
v -5.531311E-05 6 58.50002
v 12.00005 15 59.49998
v 5.149841E-05 15 59.50002
v 12.00006 6 59.49998
v 5.531311E-05 6 59.50001
v 4.00005 14.00003 40.49997
v 3.999949 7.000025 29.49997
v 3.99999 14.00003 29.49997
v 12.00002 12.99999 40.50005
v 11.99992 6.99999 29.50005
v 12.00002 13.99999 40.50005
v 11.99996 13.99999 29.50005
v 13.25 12 3.814697E-06
v 13.25 1.000001 3.814697E-06
v 3.814697E-06 12 -0.4999962
v 13.25 12 -0.5
v 0 1 -0.4999962
v 13.25 1 -0.4999924
v 0 0 29.49936
v 0 1 29.49936
v 13.5 1 29.49936
v 13.5 0 29.49936
v 0 1 0.0006446838
v 13.5 1 0.0006446838
v 0 0 0.0006446838
v 13.5 0 0.0006446838
v 3.999998 6 40.50005
v 3.999998 7.000002 40.50005
v 12 7.000002 40.49995
v 12.00001 7.000002 58.49995
v 12 6 40.49994

vt 0 0
vt -1 0
vt 0 1
vt -1 1
vt -1.5 0
vt -1.5 1
vt 1 0
vt 1 1
vt 1.5 0
vt 1.5 1
vt 0 -1.5
vt 1 -1.5
vt -1 -1.5

vn 0 0 1
vn -1 0 0
vn 0 0 -1
vn 1 0 0
vn 0 1 0
vn 0 -1 0
vn -6.564615E-06 0.8778956 -0.4788522
vn -8.277153E-06 -0.8778955 0.4788523

usemtl DefaultHDMaterial
f 3/3/1 4/4/1 2/2/1 1/1/1
f 4/3/2 6/6/2 5/5/2 2/1/2
f 6/8/3 8/3/3 7/1/3 5/7/3
f 8/10/4 3/3/4 1/1/4 7/9/4
f 8/11/5 6/12/5 4/7/5 3/1/5
f 1/1/6 2/2/6 5/13/6 7/11/6

usemtl env_walls
f 12/7/2 11/8/2 10/3/2 9/1/2
f 11/7/5 14/8/5 13/3/5 10/1/5
f 14/7/4 16/8/4 15/3/4 13/1/4
f 16/7/6 12/8/6 9/3/6 15/1/6
f 16/7/1 14/8/1 11/3/1 12/1/1
f 9/7/3 10/8/3 13/3/3 15/1/3
f 20/7/1 19/8/1 18/3/1 17/1/1
f 19/7/5 22/8/5 21/3/5 18/1/5
f 22/7/3 24/8/3 23/3/3 21/1/3
f 24/7/6 20/8/6 17/3/6 23/1/6
f 24/7/4 22/8/4 19/3/4 20/1/4
f 17/7/2 18/8/2 21/3/2 23/1/2
f 28/7/2 27/8/2 26/3/2 25/1/2
f 27/7/7 30/8/7 29/3/7 26/1/7
f 30/7/4 32/8/4 31/3/4 29/1/4
f 32/7/6 28/8/6 25/3/6 31/1/6
f 32/7/1 30/8/1 27/3/1 28/1/1
f 25/7/3 26/8/3 29/3/3 31/1/3
f 36/7/1 35/8/1 34/3/1 33/1/1
f 35/7/5 38/8/5 37/3/5 34/1/5
f 38/7/3 40/8/3 39/3/3 37/1/3
f 40/7/6 36/8/6 33/3/6 39/1/6
f 40/7/4 38/8/4 35/3/4 36/1/4
f 33/7/2 34/8/2 37/3/2 39/1/2
f 44/7/2 43/8/2 42/3/2 41/1/2
f 43/7/5 46/8/5 45/3/5 42/1/5
f 46/7/4 48/8/4 47/3/4 45/1/4
f 48/7/6 44/8/6 41/3/6 47/1/6
f 48/7/1 46/8/1 43/3/1 44/1/1
f 41/7/3 42/8/3 45/3/3 47/1/3
f 51/7/2 50/8/2 49/3/2 10/1/2
f 50/7/5 53/8/5 52/3/5 49/1/5
f 53/7/4 55/8/4 54/3/4 52/1/4
f 55/7/6 51/8/6 10/3/6 54/1/6
f 55/7/1 53/8/1 50/3/1 51/1/1
f 10/7/3 49/8/3 52/3/3 54/1/3
f 59/7/2 58/8/2 57/3/2 56/1/2
f 58/7/5 61/8/5 60/3/5 57/1/5
f 61/7/4 63/8/4 62/3/4 60/1/4
f 63/7/6 59/8/6 56/3/6 62/1/6
f 63/7/1 61/8/1 58/3/1 59/1/1
f 56/7/3 57/8/3 60/3/3 62/1/3
f 66/7/3 50/8/3 65/3/3 64/1/3
f 50/7/5 68/8/5 67/3/5 65/1/5
f 68/7/1 70/8/1 69/3/1 67/1/1
f 70/7/6 66/8/6 64/3/6 69/1/6
f 70/7/2 68/8/2 50/3/2 66/1/2
f 64/7/4 65/8/4 67/3/4 69/1/4
f 73/7/2 72/8/2 61/3/2 71/1/2
f 72/7/8 75/8/8 74/3/8 61/1/8
f 75/7/4 77/8/4 76/3/4 74/1/4
f 77/7/5 73/8/5 71/3/5 76/1/5
f 77/7/3 75/8/3 72/3/3 73/1/3
f 71/7/1 61/8/1 74/3/1 76/1/1
f 79/7/1 78/8/1 21/3/1 3/1/1
f 78/7/5 81/8/5 80/3/5 21/1/5
f 81/7/3 83/8/3 82/3/3 80/1/3
f 83/7/6 79/8/6 3/3/6 82/1/6
f 83/7/4 81/8/4 78/3/4 79/1/4
f 3/7/2 21/8/2 80/3/2 82/1/2
f 87/7/1 86/8/1 85/3/1 84/1/1
f 86/7/5 89/8/5 88/3/5 85/1/5
f 89/7/3 91/8/3 90/3/3 88/1/3
f 91/7/6 87/8/6 84/3/6 90/1/6
f 91/7/4 89/8/4 86/3/4 87/1/4
f 84/7/2 85/8/2 88/3/2 90/1/2
f 36/7/2 35/8/2 93/3/2 92/1/2
f 35/7/5 95/8/5 94/3/5 93/1/5
f 95/7/4 64/8/4 96/3/4 94/1/4
f 64/7/6 36/8/6 92/3/6 96/1/6
f 64/7/1 95/8/1 35/3/1 36/1/1
f 92/7/3 93/8/3 94/3/3 96/1/3

