# ProBuilder 4.4.0
# https://unity3d.com/unity/features/worldbuilding/probuilder
# 2/28/2021 10:43:00 PM

mtllib ./Room_2.mtl
o Room 2

g Room 2 probuilder
v -70.62508 0.2502089 11
v -70.50003 0.2502089 0
v -1.907349E-06 0.2502089 0
v -70.62508 3.750209 39
v -70.62508 13.94391 26.03466
v -70.62508 0.2502089 39
v -70.62508 14.04044 20
v -70.50003 24.00021 50.1687
v -70.62508 20.25021 26
v -70.62508 24.00021 13.41565
v -70.62508 4.250209 11
v -70.62508 20.25011 20
v 0 23.25021 50.1687
v -1.907349E-06 24.00021 1.907349E-06
v -1.907349E-06 0.2502089 50.1687
v -70.50003 0.2502089 50.1687
v -70.62508 24.00021 -0.2921734
v -70.50003 6.250209 50.1687
v 0 6.000209 49
v 0 9.750209 49
v 0 19.25021 4.000001
v 0 12.25021 4.000001
v 0 6.000209 43
v 0 9.750209 43
v 0 19.25021 10
v -70.62508 4.250134 5
v -70.50003 0.2502089 5.000001
v -70.62498 3.750209 45
v -70.62488 0.0002088547 45
v -70.50003 0.0002088547 50.1687
v -1.907349E-06 0.2502089 4
v -1.907349E-06 0.2502089 20
v 0 10.25021 20
v 0 12.25021 10
v -3.051758E-05 10.25021 4.000001

vt 70.62508 11
vt 70.50003 0
vt 1.907349E-06 0
vt -39 3.750209
vt -26.03466 13.94391
vt -39 0.2502089
vt -20 14.04044
vt -11 0.2502089
vt -50.1687 24.00021
vt -26 20.25021
vt -13.41565 24.00021
vt -11 4.250209
vt -20 20.25011
vt -0.2473285 49.81559
vt -0.2553087 -0.35871
vt -70.75135 49.81559
vt 70.62508 39
vt 1.907349E-06 50.1687
vt 70.50003 50.1687
vt -70.62508 -0.2921734
vt -70.62508 13.41565
vt -70.50003 50.1687
vt 70.50003 24.00021
vt 70.50003 0.2502089
vt 0 23.25021
vt 1.907349E-06 0.2502089
vt 70.50003 6.250209
vt -70.50003 0.2501899
vt -70.62508 24.00199
vt -1.907349E-06 23.99839
vt 50.1687 0.2502089
vt 50.1687 23.25021
vt 49 6.000209
vt 49 9.750209
vt 1.907348E-06 24.00021
vt 4.000001 19.25021
vt 4.000001 12.25021
vt 43 6.000209
vt 43 9.750209
vt 10 19.25021
vt -13.17528 23.57763
vt -49.92855 23.57763
vt -19.7596 19.82746
vt -25.75956 19.82744
vt 0.2921734 24.00021
vt -5 4.250134
vt -1.162068 24.38945
vt -6.453119 4.63907
vt -1.451605 0.6390844
vt -6.450545 0.6385164
vt -48.4503 6.250209
vt -48.4503 24.00021
vt -37.28184 3.750209
vt -43.28009 3.750209
vt -43.27917 3.752105
vt -48.44938 6.252104
vt -43.27917 0.002104459
vt -48.44938 0.002104464
vt 1.907349E-06 4
vt 1.907349E-06 20
vt 20 10.25021
vt 10 12.25021
vt 4.000001 10.25021
vt 4 0.2502089
vt 20 0.2502089

vn 0 1 0
vn 1 0 0
vn 0.9999914 -0.00181614 -0.0023051
vn 0.9999828 -0.00363228 -0.004610201
vn -0.0106365 -0.9998317 -0.01494704
vn 0 -1 0
vn 0 0 -1
vn -0.002068478 0.006150513 0.9999579
vn 0 0.01230111 0.9999244
vn -0.004136955 -8.030872E-08 0.9999914
vn -1 8.29282E-08 -1.224018E-06
vn 0.9999764 -0.005973591 -0.003402243
vn 0.9997104 -0.01965208 -0.001700846
vn 0.9994444 -0.03333057 5.509661E-07
vn 0.9997728 0.005517186 0.02058981
vn 0.9996423 0.01838198 0.01029491
vn 0.9995117 0.03124677 0
vn 0.9997079 0 -0.02416663
vn 0.9998444 -0.003082933 -0.01209158
vn 0.999981 -0.006165865 -1.653004E-05

usemtl Pro_Colourizing
f 3/3/1 2/2/1 1/1/1
f 16/19/1 15/18/1 6/17/1
f 4/4/2 6/6/2 5/5/2
f 1/8/2 11/12/2 10/11/2
f 7/7/2 1/8/2 12/13/2
f 18/27/7 15/26/7 16/24/7
f 18/27/7 13/25/7 15/26/7
f 13/25/7 18/27/7 8/23/7
f 8/16/5 14/15/5 13/14/5
f 15/31/11 19/33/11 23/38/11
f 24/39/11 20/34/11 13/32/11
f 25/40/11 24/39/11 13/32/11
f 14/35/11 25/40/11 13/32/11
f 14/35/11 21/36/11 25/40/11
f 1/8/2 10/11/2 12/13/2
f 31/59/1 3/3/1 1/1/1
f 32/60/1 31/59/1 1/1/1
f 32/60/1 1/1/1 6/17/1
f 15/18/1 32/60/1 6/17/1
f 25/40/11 34/62/11 33/61/11
f 33/61/11 23/38/11 24/39/11
f 25/40/11 33/61/11 24/39/11
f 34/62/11 22/37/11 35/63/11
f 35/63/11 3/26/11 31/64/11
f 22/37/11 3/26/11 35/63/11
f 34/62/11 35/63/11 33/61/11
f 10/21/6 17/20/6 14/3/6
f 14/3/6 8/22/6 10/21/6
f 1/8/2 7/7/2 5/5/2
f 5/5/2 6/6/2 1/8/2
f 4/4/3 5/5/2 9/10/3
f 9/10/3 8/9/4 4/4/3
f 11/12/2 26/46/2 17/45/2
f 17/45/2 10/11/2 11/12/2
f 8/52/19 18/51/18 28/54/19
f 28/54/19 4/53/20 8/52/19
f 17/29/8 2/28/9 3/26/8
f 3/26/8 14/30/10 17/29/8
f 19/33/11 15/31/11 13/32/11
f 13/32/11 20/34/11 19/33/11
f 21/36/11 14/35/11 3/26/11
f 3/26/11 22/37/11 21/36/11
f 12/43/13 10/41/12 8/42/13
f 8/42/13 9/44/14 12/43/13
f 2/49/16 17/47/15 26/48/16
f 26/48/16 27/50/17 2/49/16
f 29/57/18 28/55/18 18/56/18
f 18/56/18 30/58/18 29/57/18
f 15/31/11 23/38/11 33/61/11
f 33/61/11 32/65/11 15/31/11

