# ProBuilder 4.4.0
# https://unity3d.com/unity/features/worldbuilding/probuilder
# 3/1/2021 10:40:14 AM

mtllib ./LoweredCeiling.mtl
o LoweredCeiling

g LoweredCeiling
v -0.9676971 0 7.668701
v -0.9676971 0 17.6687
v 17.0323 0 2.250002
v 17.0323 0 17.6687
v -0.9676971 0 0.25
v 34.0323 0 0.25
v 34.0323 14 0.2500038
v -0.9676971 14 0.25
v 34.0323 0 2.250002
v 34.0323 14 2.250002
v 17.0323 14 2.250002
v 17.0323 14 17.6687

vt -0.9676971 7.668701
vt -0.9676971 17.6687
vt 17.0323 2.250002
vt 17.0323 17.6687
vt -0.9676971 0.25
vt 0.9676971 6.811963E-08
vt -34.0323 6.811859E-08
vt -34.0323 14
vt 0.9676971 14
vt 34.0323 0.25
vt 34.0323 2.250002
vt 34.0323 14
vt 34.0323 0
vt 17.0323 0
vt 17.0323 14
vt -2.250002 14
vt -17.6687 0
vt -17.6687 14
vt -2.250002 0
vt -0.25 0
vt -0.2500038 14

vn 0 -1 0
vn 0 0 -1
vn 0 0 1
vn 1 0 0

usemtl Pro_Colour_Darker
f 1/1/1 5/5/1 3/3/1
f 12/18/4 4/17/4 11/16/4
f 4/17/4 3/19/4 11/16/4
f 4/4/1 2/2/1 1/1/1
f 1/1/1 3/3/1 4/4/1
f 5/5/1 6/10/1 9/11/1
f 9/11/1 3/3/1 5/5/1
f 8/9/2 7/8/2 6/7/2
f 6/7/2 5/6/2 8/9/2
f 3/14/3 9/13/3 10/12/3
f 10/12/3 11/15/3 3/14/3
f 9/19/4 6/20/4 7/21/4
f 7/21/4 10/16/4 9/19/4

